<?xml version="1.0" encoding="UTF-8"?>
<svg xmlns="http://www.w3.org/2000/svg" xmlns:xlink="http://www.w3.org/1999/xlink" width="400px" height="400px" viewBox="0 0 400 400" version="1.1">
  <title>hf-logo@1x</title>
  <g id="hf-logo" stroke="none" stroke-width="1" fill="none" fill-rule="evenodd">
    <g id="Group" transform="translate(34.000000, 20.000000)" fill-rule="nonzero">
      <polygon id="Shape" fill="#FFC300" points="165.344628 359.151375 0.262756575 236.106804 0.262756575 174.635606 95.3058078 196.124573 165.416023 293.993784 235.411212 196.124573 330.466162 174.635606 330.466162 174.635606 330.489961 174.635606 330.489961 236.106804"></polygon>
      <path d="M0.262756575,31.5365728 L0.262756575,174.635606 L0.282588611,174.635606 L165.360494,81.4949488 C165.360494,81.4949488 41.6680822,9.28744013 31.0857075,5.02479401 C11.2100407,-3.08363351 0.262756575,-4.28109785 0.262756575,31.5365728 Z" id="Shape" fill="#FF8D00"></path>
      <path d="M299.659077,5.02888091 C289.072737,9.29152703 165.733336,81.2742558 165.733336,81.2742558 L0.282588611,174.635606 L95.3335727,196.124573 L165.344628,293.993784 L235.486574,196.124573 L330.489961,174.635606 L330.489961,62.6829066 L330.489961,31.5365728 C330.489961,-4.28109785 319.542677,-3.08363351 299.659077,5.02888091 Z" id="Shape" fill="#FF4F00"></path>
    </g>
  </g>
</svg>
